:SAMPLES-PER-SECOND 30
:FRAME-RANGE 1-2643
:FULLY-SPECIFIED
:DEGREES
1570
root  -67.7238 36.4908 0.156193 -173.129 -12.2447 165.859
RightUpLeg  -36.4962 -4.01854 3.44911
RightLeg  29.6101 -5.27448 -3.46311
RightFoot  -19.2741 0.191751 4.64777
RightToes  5.38607e-012 1.2921e-014 -6.02303e-014
Spine  3.99301 -4.86433 -7.59701
Spine1  1.4854 -4.6137 -0.308916
HEad  12.5849 -32.6637 8.28492
LeftShoulder1  2.19409 -6.99357 -14.686
LeftArm  25.4265 -15.6992 -56.9572
LeftForeArm  20.8709 -35.2465 -6.69466
LeftHand  -0.199463 2.0034 6.60172
RightShoulder  1.71886 3.19933 20.0708
RightArm  24.7227 -18.9154 49.6744
RightForeArm  29.2073 35.8011 6.34652
RightHand  -0.132314 -4.78098 -23.8959
LeftUpLeg  -2.8966 -9.45383 4.63613
LeftLeg  46.9347 -9.15546 -9.92534
LeftFoot  5.04566 2.52923 -17.6602
LeftToes  -4.79707e-012 -5.93756e-011 -7.55542e-012
1571
root  -67.6822 36.3392 -3.29971 -174.327 -10.51 166.919
RightUpLeg  -32.6761 -1.15242 4.77682
RightLeg  25.6427 -10.8362 -5.83135
RightFoot  -17.7318 0.00849832 2.30283
RightToes  5.38607e-012 1.2921e-014 -6.02303e-014
Spine  4.0665 -4.47689 -5.50179
Spine1  2.95248 -4.12133 -0.723165
HEad  12.0196 -33.0543 7.97165
LeftShoulder1  2.32984 -7.36243 -15.2733
LeftArm  31.0948 -11.0546 -56.4914
LeftForeArm  16.4153 -31.9 -6.08972
LeftHand  -0.213003 1.87844 6.83788
RightShoulder  1.74848 3.20422 20.5398
RightArm  20.9921 -14.4485 51.4371
RightForeArm  32.5012 41.1303 7.66194
RightHand  -0.0281655 -5.28483 -23.8974
LeftUpLeg  -6.29329 -11.0154 7.05603
LeftLeg  57.2846 -6.33307 -9.98984
LeftFoot  -0.540825 1.70563 -17.8851
LeftToes  -4.79707e-012 -5.93756e-011 -7.55542e-012
1572
root  -67.4712 36.0026 -6.67895 -175.977 -8.68094 167.331
RightUpLeg  -29.6594 -2.47855 8.54967
RightLeg  31.0742 -12.8785 -8.47879
RightFoot  -12.4549 -0.220867 -14.0326
RightToes  5.38607e-012 1.2921e-014 -6.02303e-014
Spine  6.23079 -3.86819 -4.1923
Spine1  2.44928 -3.60142 -0.635218
HEad  12.559 -32.9496 6.88837
LeftShoulder1  2.21705 -7.15316 -14.57
LeftArm  33.7772 -4.7135 -56.0671
LeftForeArm  16.7637 -31.4177 -5.94984
LeftHand  -0.205392 2.30426 7.43406
RightShoulder  1.76566 3.2695 20.5359
RightArm  17.438 -8.36768 55.7878
RightForeArm  35.4727 44.5669 8.57892
RightHand  0.0327663 -5.57919 -23.9134
LeftUpLeg  -11.1317 -10.7647 9.36888
LeftLeg  64.3417 -3.33754 -6.90099
LeftFoot  -4.75067 0.936196 -15.6852
LeftToes  -4.79707e-012 -5.93756e-011 -7.55542e-012
1573
root  -67.2385 35.5195 -10.0685 -178.311 -6.60165 168.211
RightUpLeg  -25.547 -2.49392 11.3592
RightLeg  38.7545 -12.7308 -11.0002
RightFoot  -16.4985 -0.975918 -19.0119
RightToes  5.38607e-012 1.2921e-014 -6.02303e-014
Spine  8.45396 -2.98253 -2.16336
Spine1  1.84448 -2.5426 -1.45074
HEad  11.6912 -33.3421 6.4746
LeftShoulder1  2.08251 -6.36485 -14.9396
LeftArm  32.9856 1.51957 -54.2628
LeftForeArm  22.5099 -33.6466 -6.17804
LeftHand  -0.162421 3.4231 8.893
RightShoulder  1.91435 3.92181 20.1586
RightArm  14.7003 0.0620746 60.3696
RightForeArm  36.6387 45.2596 8.73946
RightHand  0.0665479 -5.73173 -24.446
LeftUpLeg  -17.2519 -10.7087 11.2988
LeftLeg  69.3624 -0.519063 -0.694198
LeftFoot  -9.47517 0.24768 -11.6999
LeftToes  -4.79707e-012 -5.93756e-011 -7.55542e-012
1574
root  -66.9319 35.2884 -13.6605 -179.193 -4.04602 168.981
RightUpLeg  -18.7866 -2.25099 13.3743
RightLeg  40.4014 -12.3705 -11.3274
RightFoot  -22.7915 -2.05093 -18.7377
RightToes  5.38607e-012 1.2921e-014 -6.02303e-014
Spine  6.85887 -1.8246 0.0533556
Spine1  3.7233 -0.993937 -2.43571
HEad  12.169 -33.5364 5.46474
LeftShoulder1  1.82717 -5.11189 -15.127
LeftArm  31.1206 7.61339 -52.1937
LeftForeArm  21.6348 -36.7001 -7.04592
LeftHand  -0.205576 2.75148 8.64681
RightShoulder  2.09761 4.6607 20.0062
RightArm  13.9057 9.53363 65.22
RightForeArm  36.9128 41.6933 7.55606
RightHand  0.07719 -5.7559 -25.7134
LeftUpLeg  -24.5407 -9.99913 12.0302
LeftLeg  69.5518 1.74496 6.04964
LeftFoot  -13.5305 -0.030741 -5.84574
LeftToes  -4.79707e-012 -5.93756e-011 -7.55542e-012
1575
root  -66.3704 35.4239 -17.3579 -179.533 -0.178406 168.344
RightUpLeg  -10.0355 0.605341 13.8422
RightLeg  37.7102 -12.8957 -10.7464
RightFoot  -25.7652 -2.34152 -16.989
RightToes  5.38607e-012 1.2921e-014 -6.02303e-014
Spine  5.61254 0.414375 1.17425
Spine1  3.46782 1.6737 -4.26806
HEad  14.1711 -34.4429 4.63333
LeftShoulder1  1.41163 -3.2281 -15.0111
LeftArm  29.2176 13.8446 -49.8065
LeftForeArm  22.0476 -40.7249 -8.21034
LeftHand  -0.212815 2.33796 7.80072
RightShoulder  2.24582 5.56907 18.9146
RightArm  13.8605 15.1805 69.3427
RightForeArm  34.7033 37.0277 6.35037
RightHand  0.0219875 -5.49959 -26.7587
LeftUpLeg  -29.4757 -8.01638 10.532
LeftLeg  62.4522 4.2967 9.50884
LeftFoot  -15.1007 -0.0736265 -4.99735
LeftToes  -4.79707e-012 -5.93756e-011 -7.55542e-012
1576
root  -65.6138 35.8961 -21.1463 -179.37 2.45303 166.593
RightUpLeg  -1.81613 3.09889 12.9314
RightLeg  34.0186 -12.5478 -9.20938
RightFoot  -23.8542 -1.751 -14.4155
RightToes  5.38607e-012 1.2921e-014 -6.02303e-014
Spine  3.4583 2.29206 1.47562
Spine1  3.94642 4.10409 -7.05307
HEad  15.1927 -36.6905 5.41767
LeftShoulder1  1.14173 -2.00317 -14.8982
LeftArm  28.0226 19.0761 -45.9163
LeftForeArm  25.0799 -46.2356 -9.90329
LeftHand  -0.208068 2.37951 7.71629
RightShoulder  2.35834 6.2796 18.1635
RightArm  14.5961 17.4694 71.6669
RightForeArm  32.8628 33.4993 5.54636
RightHand  -0.0157861 -5.3372 -26.9199
LeftUpLeg  -31.905 -8.09268 7.3909
LeftLeg  48.3549 7.18988 9.00505
LeftFoot  -15.0085 -0.154591 -7.62612
LeftToes  -4.79707e-012 -5.93756e-011 -7.55542e-012
1577
root  -64.8038 36.3154 -25.0562 -178.702 3.20325 165.481
RightUpLeg  3.5103 2.65437 11.8407
RightLeg  33.1763 -9.32603 -6.75795
RightFoot  -17.9685 -0.736062 -10.5844
RightToes  5.38607e-012 1.2921e-014 -6.02303e-014
Spine  0.594112 3.66203 1.93972
Spine1  4.71065 5.72824 -8.48207
HEad  16.4253 -40.0565 5.64733
LeftShoulder1  1.03345 -1.59595 -14.4331
LeftArm  28.8948 20.4149 -42.9825
LeftForeArm  27.2416 -49.3486 -10.9982
LeftHand  -0.218947 2.15431 7.60364
RightShoulder  2.3285 6.38136 17.5486
RightArm  15.3592 16.947 72.6613
RightForeArm  31.6509 29.992 4.77809
RightHand  -0.107452 -4.93292 -25.9411
LeftUpLeg  -32.766 -9.03132 4.81065
LeftLeg  32.433 3.62636 2.82857
LeftFoot  -14.9306 -0.308371 -12.6452
LeftToes  -4.79707e-012 -5.93756e-011 -7.55542e-012
1578
root  -63.9065 36.3397 -28.6174 -178.351 2.96732 165.78
RightUpLeg  2.57654 1.58797 11.8492
RightLeg  41.9962 -3.79887 -3.9544
RightFoot  -8.6493 0.0301857 -3.77019
RightToes  5.38607e-012 1.2921e-014 -6.02303e-014
Spine  -0.301646 4.17903 2.17637
Spine1  4.95883 6.21038 -8.90272
HEad  16.684 -42.6695 5.95174
LeftShoulder1  1.05647 -2.03023 -13.021
LeftArm  28.0388 18.1996 -43.4807
LeftForeArm  30.2885 -50.4107 -11.2248
LeftHand  -0.170554 2.2612 6.01553
RightShoulder  2.38679 6.44963 18.0166
RightArm  18.6063 15.5535 72.0462
RightForeArm  27.327 25.9325 4.10824
RightHand  -0.211345 -4.46711 -25.7984
LeftUpLeg  -33.5219 -7.45858 2.67574
LeftLeg  25.1909 -4.55514 -2.00504
LeftFoot  -17.1337 -0.871498 -19.0871
LeftToes  -4.79707e-012 -5.93756e-011 -7.55542e-012
1579
root  -63.1186 35.6892 -31.8225 -179.839 2.67966 165.51
RightUpLeg  -2.62521 0.177682 10.7193
RightLeg  60.0641 -0.309502 -1.08539
RightFoot  -5.00984 -0.234971 3.62984
RightToes  5.38607e-012 1.2921e-014 -6.02303e-014
Spine  1.09571 3.64313 -0.287229
Spine1  5.9719 5.30729 -7.43223
HEad  14.4791 -43.5437 6.41973
LeftShoulder1  1.19569 -2.62796 -13.4111
LeftArm  26.7259 11.9801 -43.2045
LeftForeArm  30.8393 -51.8998 -11.8664
LeftHand  -0.196635 2.39294 7.29616
RightShoulder  2.48312 6.43453 19.1301
RightArm  20.2513 14.1458 71.1195
RightForeArm  26.7016 21.0997 4.81964
RightHand  -0.269163 -4.2172 -25.9886
LeftUpLeg  -32.7343 -8.63426 0.692481
LeftLeg  26.9063 -3.70176 -1.70237
LeftFoot  -17.9104 -1.05447 -20.0495
LeftToes  -4.79707e-012 -5.93756e-011 -7.55542e-012
